<svg xmlns="http://www.w3.org/2000/svg" width="29.013" height="23.065" viewBox="0 0 29.013 23.065">
  <g id="Group_51" data-name="Group 51" transform="translate(0 0)">
    <g id="Group_46" data-name="Group 46" transform="translate(20.128 3.336)">
      <g id="Group_45" data-name="Group 45">
        <path id="Path_35" data-name="Path 35" d="M308.688,1314.7l-6.709-7.108a1.088,1.088,0,1,0-1.583,1.493l6,6.361-6,6.363a1.088,1.088,0,0,0,1.583,1.494l6.709-7.11A1.089,1.089,0,0,0,308.688,1314.7Z" transform="translate(-300.099 -1307.25)" fill="#fff"/>
      </g>
    </g>
    <g id="Group_48" data-name="Group 48" transform="translate(0 3.336)">
      <g id="Group_47" data-name="Group 47">
        <path id="Path_36" data-name="Path 36" d="M294.813,1321.808l-6-6.361,6-6.361a1.088,1.088,0,0,0-1.583-1.494l-6.709,7.108a1.088,1.088,0,0,0,0,1.494l6.709,7.108a1.077,1.077,0,0,0,.791.341,1.088,1.088,0,0,0,.792-1.835Z" transform="translate(-286.224 -1307.25)" fill="#fff"/>
      </g>
    </g>
    <g id="Group_50" data-name="Group 50" transform="translate(11.823)">
      <g id="Group_49" data-name="Group 49">
        <path id="Path_37" data-name="Path 37" d="M298.817,1304.963a1.087,1.087,0,0,0-1.239.911l-3.191,20.89a1.088,1.088,0,0,0,.911,1.24,1.277,1.277,0,0,0,.165.011,1.09,1.09,0,0,0,1.075-.924l3.191-20.89A1.088,1.088,0,0,0,298.817,1304.963Z" transform="translate(-294.374 -1304.95)" fill="#fff"/>
      </g>
    </g>
  </g>
</svg>
