<svg id="Group_55" data-name="Group 55" xmlns="http://www.w3.org/2000/svg" width="24.239" height="26.112" viewBox="0 0 24.239 26.112">
  <g id="Group_54" data-name="Group 54">
    <path id="Path_44" data-name="Path 44" d="M1147.744,1110.518h-23.2a.521.521,0,0,0-.521.521v25.072a.52.52,0,0,0,.521.519h23.2a.519.519,0,0,0,.519-.519v-25.072A.52.52,0,0,0,1147.744,1110.518Zm-.521,25.072h-22.159v-24.032h22.159Z" transform="translate(-1124.024 -1110.518)" fill="#fff"/>
    <path id="Path_45" data-name="Path 45" d="M1129.157,1118.221a2.731,2.731,0,1,0-2.73-2.73A2.734,2.734,0,0,0,1129.157,1118.221Zm0-4.422a1.691,1.691,0,1,1-1.69,1.692A1.693,1.693,0,0,1,1129.157,1113.8Z" transform="translate(-1122.941 -1109.508)" fill="#fff"/>
    <path id="Path_46" data-name="Path 46" d="M1131.643,1115.323h9.416a.52.52,0,0,0,0-1.04h-9.416a.52.52,0,0,0,0,1.04Z" transform="translate(-1120.824 -1108.821)" fill="#fff"/>
    <path id="Path_47" data-name="Path 47" d="M1138.733,1119.2h-1.925a.521.521,0,0,0,0,1.042h1.925a.521.521,0,0,0,0-1.042Z" transform="translate(-1118.498 -1106.608)" fill="#fff"/>
    <path id="Path_48" data-name="Path 48" d="M1129.157,1123.133a2.734,2.734,0,0,0,2.681-2.209h7.436a.521.521,0,1,0,0-1.042h-7.436a2.731,2.731,0,1,0-2.681,3.251Zm0-4.42a1.69,1.69,0,1,1-1.69,1.69A1.692,1.692,0,0,1,1129.157,1118.713Z" transform="translate(-1122.941 -1107.294)" fill="#fff"/>
    <path id="Path_49" data-name="Path 49" d="M1129.157,1127.974a2.735,2.735,0,0,0,2.681-2.211h11.339a.52.52,0,0,0,0-1.04h-11.339a2.731,2.731,0,1,0-2.681,3.251Zm0-4.421a1.691,1.691,0,1,1-1.69,1.691A1.693,1.693,0,0,1,1129.157,1123.552Z" transform="translate(-1122.941 -1105.113)" fill="#fff"/>
  </g>
</svg>
